<svg width="130" height="130" viewBox="0 0 130 130" fill="none" xmlns="http://www.w3.org/2000/svg">
<path d="M53.1528 1.58468C55.087 1.27121 57.0138 0.939303 58.021 0.74787V0.771461L58.6384 0.622338C58.8116 0.580504 59.1784 0.543917 59.7376 0.522358C60.2824 0.501358 60.9718 0.495571 61.7649 0.503237C63.3502 0.518559 65.333 0.587446 67.3672 0.692322C71.4529 0.902961 75.6847 1.2558 77.3293 1.60065C79.1638 1.98529 80.4181 2.42796 81.1574 2.83762C81.5317 3.04497 81.7341 3.22228 81.8245 3.34532C81.848 3.37742 81.8601 3.39931 81.8661 3.413C81.8567 3.42383 81.8395 3.44079 81.8099 3.46247C81.7544 3.50307 81.6674 3.55116 81.5389 3.59961C81.2804 3.69711 80.9008 3.77867 80.3906 3.82294C79.3732 3.91121 77.9151 3.84481 76.0467 3.53524L75.965 4.02852L76.0467 3.53524C25.2294 -4.88148 -13.708 46.9758 9.04763 92.8161C15.3129 105.438 26.7884 116.474 39.4834 122.081L39.6765 121.644L39.4835 122.081C41.0134 122.757 42.0526 123.293 42.6877 123.731C43.0067 123.952 43.1942 124.127 43.2928 124.26C43.3402 124.324 43.3587 124.367 43.3656 124.39C43.3689 124.4 43.3696 124.407 43.3697 124.409C43.3698 124.411 43.3697 124.412 43.3696 124.413L43.3695 124.413C43.3223 124.661 43.2262 124.823 43.1053 124.934C42.981 125.049 42.7961 125.142 42.5232 125.191C41.9596 125.292 41.1226 125.187 40.0299 124.845C37.8625 124.166 34.9332 122.632 31.722 120.534C25.3051 116.343 17.9019 109.995 13.4254 104.065C-15.3915 65.8915 6.64083 9.12898 53.1528 1.58468ZM81.8709 3.43156C81.8703 3.4313 81.8692 3.42786 81.8696 3.42202C81.8718 3.4289 81.8716 3.43183 81.8709 3.43156ZM58.8965 14.0374L59.1545 13.9994L59.1546 13.9992C73.6147 11.9757 91.1728 18.4803 102.078 29.9638C131.982 61.4533 111.208 113.533 67.7427 116.007C24.6903 118.458 -1.9546 69.3518 23.5643 34.5873C24.5935 33.1853 25.4715 32.3227 26.128 31.8879C26.4586 31.669 26.6993 31.5812 26.8513 31.5619C26.9794 31.5457 27.0054 31.5788 27.0105 31.5853C27.0107 31.5856 27.0109 31.5858 27.0111 31.586C27.0352 31.6134 27.0966 31.718 27.0964 31.9841C27.0963 32.2416 27.0375 32.5944 26.8931 33.0417C26.6048 33.9344 26.0002 35.1284 24.9948 36.551C9.4048 58.6102 14.4068 89.2532 36.1375 104.687C75.2209 132.445 126.709 94.1553 111.113 48.9087C101.73 21.6888 70.2006 8.29742 44.2927 20.538L44.2927 20.538C43.1269 21.0889 42.1828 21.5056 41.4224 21.7954C40.6553 22.0877 40.1054 22.239 39.719 22.2792C39.3275 22.32 39.2103 22.2375 39.1742 22.201C39.1239 22.1501 39.0455 22.0057 39.0455 21.6114C39.0455 21.5362 39.1053 21.3445 39.4119 21.0286C39.7019 20.7298 40.1449 20.3896 40.7328 20.0206C41.9051 19.2847 43.5777 18.4809 45.5441 17.6985C49.4748 16.1345 54.5067 14.6843 58.8965 14.0374ZM111.72 22.3048C111.73 22.095 111.802 21.9417 111.942 21.8023C112.001 21.7434 112.051 21.7224 112.099 21.715C112.155 21.7065 112.25 21.7105 112.4 21.7688C112.713 21.8909 113.155 22.2056 113.747 22.7993C114.921 23.9757 116.521 26.0751 118.68 29.2548C141.263 62.5095 126.487 110.19 89.0195 124.957C82.6506 127.467 72.9975 129.034 64.9231 129.411C60.8873 129.6 57.2774 129.489 54.6905 129.062C53.3921 128.847 52.3882 128.558 51.7223 128.209C51.0416 127.853 50.8491 127.513 50.8491 127.237C50.8491 127.01 50.8732 126.902 50.8967 126.849C50.9076 126.825 50.9179 126.804 50.985 126.776C51.0764 126.738 51.2435 126.703 51.5468 126.693C51.8436 126.683 52.2299 126.698 52.7372 126.732C63.6087 127.463 71.9867 127.221 79.3166 125.681C86.6554 124.14 92.9192 121.302 99.5709 116.877C129.141 97.2004 136.195 55.385 114.654 27.399C113.212 25.5265 112.357 24.2324 111.965 23.3138C111.77 22.8572 111.708 22.5346 111.72 22.3048ZM68.4957 54.5622L68.4957 54.562C63.6813 52.0474 59.2292 49.761 55.9345 48.1028C54.2876 47.2739 52.9278 46.6009 51.9559 46.1347C51.4705 45.9019 51.0783 45.7189 50.794 45.5934C50.6526 45.5309 50.5325 45.4803 50.4386 45.4445C50.3921 45.4268 50.3457 45.4102 50.3029 45.3973L50.3009 45.3967C50.2741 45.3886 50.193 45.3642 50.1022 45.3642C49.793 45.3642 49.6354 45.5978 49.5894 45.6747C49.5277 45.7777 49.4876 45.8968 49.4585 46.003C49.3982 46.2233 49.3491 46.5291 49.3066 46.9068C49.2206 47.6697 49.1519 48.8153 49.0982 50.3654C48.9905 53.4699 48.9412 58.2444 48.9412 64.9324C48.9412 72.8804 48.9761 77.6595 49.0996 80.4519C49.1612 81.8419 49.2456 82.7698 49.3665 83.3577C49.4259 83.6465 49.5027 83.8999 49.6189 84.0919C49.7444 84.2991 49.9619 84.5 50.285 84.5C50.3732 84.5 50.4522 84.4781 50.4847 84.469C50.531 84.4559 50.5809 84.439 50.631 84.4206C50.732 84.3837 50.8592 84.3316 51.0074 84.2677C51.3051 84.1392 51.7107 83.9529 52.2058 83.7182C53.1974 83.2483 54.5646 82.5771 56.1817 81.7695C59.4168 80.1538 63.6616 77.9879 67.9232 75.7849C72.1849 73.5819 76.4653 71.3408 79.7716 69.5749C81.4245 68.6921 82.8358 67.9271 83.8802 67.3445C84.4021 67.0534 84.8349 66.8064 85.1615 66.6124C85.4737 66.4268 85.7237 66.2696 85.8502 66.1645L85.8637 66.1533C86.0086 66.0331 86.2005 65.874 86.3284 65.6886C86.4009 65.5835 86.4666 65.4523 86.4924 65.2945C86.5188 65.1329 86.4983 64.9738 86.4416 64.8236C86.3368 64.546 86.108 64.2986 85.8252 64.0601C85.5311 63.812 85.1194 63.5257 84.5695 63.1825C82.378 61.815 77.7134 59.3767 68.4957 54.5622ZM47.1079 45.4237C47.2471 44.9337 47.4134 44.6912 47.6352 44.4463C48.1311 43.8987 48.5514 43.5961 49.1619 43.5091C49.8114 43.4165 50.7472 43.5573 52.2888 44.1129C55.3669 45.2223 60.5568 47.8651 70.0733 52.8571C70.3797 53.0178 70.6822 53.1765 70.9808 53.3331C76.6101 56.2853 80.8477 58.5077 83.8175 60.3081C85.3808 61.2558 86.5734 62.0753 87.4254 62.8113C88.2844 63.5533 88.7509 64.1719 88.9324 64.7063C89.1012 65.2038 89.0399 65.6778 88.7029 66.2125C88.3498 66.7725 87.7005 67.3842 86.7113 68.0865C84.83 69.422 81.8933 70.9686 77.9501 73.0452C77.748 73.1516 77.5433 73.2594 77.3359 73.3687C74.6432 74.7873 72.1786 76.0999 69.9225 77.3015C64.8837 79.9852 60.8845 82.1152 57.7036 83.6362C55.4023 84.7367 53.5547 85.5058 52.0701 85.9334C50.5757 86.3638 49.5167 86.4274 48.7569 86.1967C48.0352 85.9774 47.507 85.4678 47.1189 84.5357C46.7217 83.5815 46.4904 82.2243 46.373 80.3968C46.2108 77.8733 46.2695 74.5666 46.3438 70.3842C46.3771 68.505 46.4136 66.449 46.4347 64.2078C46.5169 55.4419 46.581 50.7333 46.7576 48.0659C46.846 46.7296 46.9609 45.9412 47.1079 45.4237Z" fill="white" stroke="black"/>
</svg>
